<svg width="20" height="20" viewBox="0 0 20 20" fill="none" xmlns="http://www.w3.org/2000/svg">
<path d="M6 10C5.44772 10 5 10.4477 5 11C5 11.5523 5.44772 12 6 12H14C14.5523 12 15 11.5523 15 11C15 10.4477 14.5523 10 14 10H6Z" fill="#060606"/>
<path d="M5 15C5 14.4477 5.44772 14 6 14H10C10.5523 14 11 14.4477 11 15C11 15.5523 10.5523 16 10 16H6C5.44772 16 5 15.5523 5 15Z" fill="#060606"/>
<path fill-rule="evenodd" clip-rule="evenodd" d="M5 0C5.55228 0 6 0.447715 6 1V2H14V1C14 0.447715 14.4477 0 15 0C15.5523 0 16 0.447715 16 1V2.10002C18.2822 2.56329 20 4.58104 20 7V15C20 17.7614 17.7614 20 15 20H5C2.23858 20 0 17.7614 0 15V7C0 4.58104 1.71776 2.56329 4 2.10002V1C4 0.447715 4.44772 0 5 0ZM18 8H2V15C2 16.6569 3.34315 18 5 18H15C16.6569 18 18 16.6569 18 15V8Z" fill="#060606"/>
</svg>
