<svg width="19" height="24" viewBox="0 0 19 24" fill="none" xmlns="http://www.w3.org/2000/svg">
<path fill-rule="evenodd" clip-rule="evenodd" d="M11.9497 0.870487C10.2826 0.376504 8.50789 0.376504 6.8407 0.870487C3.57631 1.83771 1.33691 4.83687 1.33691 8.24154V11.4759C1.33691 12.0382 1.22555 12.595 1.00926 13.1141L0.798871 13.6191C0.520291 14.2877 0.407336 15.0622 0.586444 15.8018C0.773524 16.5744 1.27498 17.2652 2.1056 17.6455C2.75457 17.9426 3.60806 18.2278 4.72799 18.4441V18.8327C4.72799 21.4104 6.8176 23.5 9.39525 23.5C11.9729 23.5 14.0625 21.4104 14.0625 18.8327V18.4441C15.5612 18.1546 16.5837 17.7417 17.2769 17.3413C18.5936 16.5807 18.6045 15.09 18.2054 14.1322L18.1104 13.9043C17.6768 12.8636 17.4535 11.7473 17.4535 10.6199V8.24154C17.4535 4.83687 15.2141 1.83771 11.9497 0.870487ZM9.35942 18.8327C9.37134 18.8328 9.38327 18.8328 9.39522 18.8328C9.40717 18.8328 9.4191 18.8328 9.43102 18.8327H11.7289C11.7289 20.1216 10.6841 21.1664 9.39525 21.1664C8.10642 21.1664 7.06162 20.1216 7.06162 18.8327H9.35942Z" stroke="#060606" stroke-linejoin="round"/>
</svg>
