<svg width="22" height="20" viewBox="0 0 22 20" fill="none" xmlns="http://www.w3.org/2000/svg">
<path fill-rule="evenodd" clip-rule="evenodd" d="M12.5297 0.896388C11.5784 0.367864 10.4216 0.367863 9.47027 0.896387L1.04037 5.57967C0.533459 5.86128 0.350823 6.50051 0.632439 7.00742C0.914054 7.51432 1.55328 7.69696 2.06019 7.41534L2.60005 7.11542V13.8474C2.60005 16.7468 4.95049 19.0973 7.8499 19.0973H14.1497C17.0491 19.0973 19.3996 16.7468 19.3996 13.8474V7.1152L19.9398 7.41534C20.4467 7.69696 21.0859 7.51432 21.3676 7.00742C21.6492 6.50051 21.4665 5.86128 20.9596 5.57967L12.5297 0.896388ZM7.8499 15.9473V14.8973C7.8499 13.1577 9.26016 11.7474 10.9998 11.7474C12.7395 11.7474 14.1497 13.1577 14.1497 14.8973V15.9473C14.1497 16.5272 13.6796 16.9973 13.0997 16.9973H8.89987C8.31999 16.9973 7.8499 16.5272 7.8499 15.9473Z" fill="white" stroke="#ABABAB" stroke-linecap="square" stroke-linejoin="round"/>
</svg>
