<svg width="21" height="17" viewBox="0 0 21 17" fill="none" xmlns="http://www.w3.org/2000/svg">
<path d="M0.5 5.25C0.5 2.62665 2.62665 0.5 5.25 0.5H15.75C18.3734 0.5 20.5 2.62665 20.5 5.25V11.55C20.5 14.1734 18.3734 16.3 15.75 16.3H5.25C2.62665 16.3 0.5 14.1734 0.5 11.55V5.25ZM6.21832 4.03965C5.54986 3.50489 4.57446 3.61327 4.03969 4.28172C3.50493 4.95018 3.61331 5.92558 4.28176 6.46034L6.90804 8.56137C9.00805 10.2414 11.992 10.2414 14.092 8.56137L16.7183 6.46035C17.3868 5.92558 17.4951 4.95018 16.9604 4.28172C16.4256 3.61326 15.4502 3.50489 14.7818 4.03965L12.1555 6.14068C11.1877 6.91494 9.81243 6.91494 8.8446 6.14068L6.21832 4.03965Z" fill="white" stroke="#ABABAB" stroke-linecap="round"/>
</svg>
