<svg width="35" height="24" viewBox="0 0 35 24" fill="none" xmlns="http://www.w3.org/2000/svg">
<path d="M12.4393 8.56066C13.0251 9.14645 13.9749 9.14645 14.5607 8.56066C15.1464 7.97487 15.1464 7.02513 14.5607 6.43934L8.56066 0.43934C7.97487 -0.146447 7.02513 -0.146447 6.43934 0.43934L0.43934 6.43934C-0.146447 7.02513 -0.146447 7.97487 0.43934 8.56066C1.02513 9.14645 1.97487 9.14645 2.56066 8.56066L6 5.12132V22.5C6 23.3284 6.67157 24 7.5 24C8.32843 24 9 23.3284 9 22.5V5.12132L12.4393 8.56066Z" fill="#ABABAB"/>
<path d="M22.5607 15.4394C21.9749 14.8536 21.0251 14.8536 20.4393 15.4394C19.8536 16.0251 19.8536 16.9749 20.4393 17.5607L26.4393 23.5607C27.0251 24.1465 27.9749 24.1465 28.5607 23.5607L34.5607 17.5607C35.1464 16.9749 35.1464 16.0251 34.5607 15.4394C33.9749 14.8536 33.0251 14.8536 32.4393 15.4394L29 18.8787V1.5C29 0.671574 28.3284 0 27.5 0C26.6716 0 26 0.671574 26 1.5V18.8787L22.5607 15.4394Z" fill="#ABABAB"/>
</svg>
