<svg width="24" height="24" viewBox="0 0 24 24" fill="none" xmlns="http://www.w3.org/2000/svg">
<path d="M7 2C7.55228 2 8 2.44772 8 3V5C8 5.55228 7.55228 6 7 6C6.44772 6 6 5.55228 6 5V3C6 2.44772 6.44772 2 7 2Z" fill="#555454"/>
<path d="M15.7071 13.7071C16.0976 13.3166 16.0976 12.6834 15.7071 12.2929C15.3166 11.9024 14.6834 11.9024 14.2929 12.2929L11 15.5858L9.70711 14.2929C9.31658 13.9024 8.68342 13.9024 8.29289 14.2929C7.90237 14.6834 7.90237 15.3166 8.29289 15.7071L10.2929 17.7071C10.6834 18.0976 11.3166 18.0976 11.7071 17.7071L15.7071 13.7071Z" fill="#555454"/>
<path d="M18 3C18 2.44772 17.5523 2 17 2C16.4477 2 16 2.44772 16 3V5C16 5.55228 16.4477 6 17 6C17.5523 6 18 5.55228 18 5V3Z" fill="#555454"/>
<path fill-rule="evenodd" clip-rule="evenodd" d="M7 4C4.23858 4 2 6.23858 2 9V17C2 19.7614 4.23858 22 7 22H17C19.7614 22 22 19.7614 22 17V9C22 6.23858 19.7614 4 17 4H7ZM19.8293 8C19.4175 6.83481 18.3062 6 17 6H7C5.69378 6 4.58254 6.83481 4.17071 8H19.8293ZM4 10H20V17C20 18.6569 18.6569 20 17 20H7C5.34315 20 4 18.6569 4 17V10Z" fill="#555454"/>
</svg>
