<svg width="21" height="21" viewBox="0 0 21 21" fill="none" xmlns="http://www.w3.org/2000/svg">
<path fill-rule="evenodd" clip-rule="evenodd" d="M0.617644 10.0028C0.892067 9.45392 1.55946 9.23145 2.1083 9.50588L10.5 13.7017L18.8917 9.50588C19.4405 9.23145 20.1079 9.45392 20.3824 10.0028C20.6568 10.5516 20.4343 11.219 19.8855 11.4934L10.9969 15.9377C10.6841 16.0941 10.3159 16.0941 10.0031 15.9377L1.11453 11.4934C0.565685 11.219 0.343221 10.5516 0.617644 10.0028Z" fill="white"/>
<path fill-rule="evenodd" clip-rule="evenodd" d="M0.617644 14.4471C0.892067 13.8982 1.55946 13.6757 2.1083 13.9502L10.5 18.146L18.8917 13.9502C19.4405 13.6757 20.1079 13.8982 20.3824 14.4471C20.6568 14.9959 20.4343 15.6633 19.8855 15.9377L10.9969 20.382C10.6841 20.5384 10.3159 20.5384 10.0031 20.382L1.11453 15.9377C0.565685 15.6633 0.343221 14.9959 0.617644 14.4471Z" fill="white"/>
<path fill-rule="evenodd" clip-rule="evenodd" d="M10.0031 0.617294C10.3159 0.460895 10.6841 0.460895 10.9969 0.617294L19.8855 5.06159C20.2619 5.24979 20.4997 5.63452 20.4997 6.05536C20.4997 6.4762 20.2619 6.86093 19.8855 7.04913L10.9969 11.4934C10.6841 11.6498 10.3159 11.6498 10.0031 11.4934L1.11453 7.04913C0.738117 6.86093 0.500345 6.4762 0.500345 6.05536C0.500345 5.63452 0.738117 5.24979 1.11453 5.06159L10.0031 0.617294Z" fill="white"/>
<path fill-rule="evenodd" clip-rule="evenodd" d="M0.617644 10.0028C0.892067 9.45392 1.55946 9.23145 2.1083 9.50588L10.5 13.7017L18.8917 9.50588C19.4405 9.23145 20.1079 9.45392 20.3824 10.0028C20.6568 10.5516 20.4343 11.219 19.8855 11.4934L10.9969 15.9377C10.6841 16.0941 10.3159 16.0941 10.0031 15.9377L1.11453 11.4934C0.565685 11.219 0.343221 10.5516 0.617644 10.0028Z" stroke="#ABABAB" stroke-linecap="round" stroke-linejoin="round"/>
<path fill-rule="evenodd" clip-rule="evenodd" d="M0.617644 14.4471C0.892067 13.8982 1.55946 13.6757 2.1083 13.9502L10.5 18.146L18.8917 13.9502C19.4405 13.6757 20.1079 13.8982 20.3824 14.4471C20.6568 14.9959 20.4343 15.6633 19.8855 15.9377L10.9969 20.382C10.6841 20.5384 10.3159 20.5384 10.0031 20.382L1.11453 15.9377C0.565685 15.6633 0.343221 14.9959 0.617644 14.4471Z" stroke="#ABABAB" stroke-linecap="round" stroke-linejoin="round"/>
<path fill-rule="evenodd" clip-rule="evenodd" d="M10.0031 0.617294C10.3159 0.460895 10.6841 0.460895 10.9969 0.617294L19.8855 5.06159C20.2619 5.24979 20.4997 5.63452 20.4997 6.05536C20.4997 6.4762 20.2619 6.86093 19.8855 7.04913L10.9969 11.4934C10.6841 11.6498 10.3159 11.6498 10.0031 11.4934L1.11453 7.04913C0.738117 6.86093 0.500345 6.4762 0.500345 6.05536C0.500345 5.63452 0.738117 5.24979 1.11453 5.06159L10.0031 0.617294Z" stroke="#ABABAB" stroke-linecap="round" stroke-linejoin="round"/>
</svg>
