<svg width="20" height="20" viewBox="0 0 20 20" fill="none" xmlns="http://www.w3.org/2000/svg">
<path d="M10 5C10.5523 5 11 5.44772 11 6V9H14C14.5523 9 15 9.44771 15 10C15 10.5523 14.5523 11 14 11H11V14C11 14.5523 10.5523 15 10 15C9.44771 15 9 14.5523 9 14V11H6C5.44771 11 5 10.5523 5 10C5 9.44771 5.44771 9 6 9H9V6C9 5.44772 9.44771 5 10 5Z" fill="#060606"/>
<path fill-rule="evenodd" clip-rule="evenodd" d="M0 5C0 2.23858 2.23858 0 5 0H15C17.7614 0 20 2.23858 20 5V15C20 17.7614 17.7614 20 15 20H5C2.23858 20 0 17.7614 0 15V5ZM5 2C3.34315 2 2 3.34315 2 5V15C2 16.6569 3.34315 18 5 18H15C16.6569 18 18 16.6569 18 15V5C18 3.34315 16.6569 2 15 2H5Z" fill="#060606"/>
</svg>
