<svg width="18" height="18" viewBox="0 0 18 18" fill="none" xmlns="http://www.w3.org/2000/svg">
<path fill-rule="evenodd" clip-rule="evenodd" d="M4 0C1.79086 0 0 1.79086 0 4C0 6.20914 1.79086 8 4 8C6.20914 8 8 6.20914 8 4C8 1.79086 6.20914 0 4 0ZM2 4C2 2.89543 2.89543 2 4 2C5.10457 2 6 2.89543 6 4C6 5.10457 5.10457 6 4 6C2.89543 6 2 5.10457 2 4Z" fill="#060606"/>
<path fill-rule="evenodd" clip-rule="evenodd" d="M4 10C1.79086 10 0 11.7909 0 14C0 16.2091 1.79086 18 4 18C6.20914 18 8 16.2091 8 14C8 11.7909 6.20914 10 4 10ZM2 14C2 12.8954 2.89543 12 4 12C5.10457 12 6 12.8954 6 14C6 15.1046 5.10457 16 4 16C2.89543 16 2 15.1046 2 14Z" fill="#060606"/>
<path d="M10 14C10 13.4477 10.4477 13 11 13H17C17.5523 13 18 13.4477 18 14C18 14.5523 17.5523 15 17 15H11C10.4477 15 10 14.5523 10 14Z" fill="#060606"/>
<path d="M11 3C10.4477 3 10 3.44772 10 4C10 4.55228 10.4477 5 11 5H17C17.5523 5 18 4.55228 18 4C18 3.44772 17.5523 3 17 3H11Z" fill="#060606"/>
</svg>
