<svg width="21" height="21" viewBox="0 0 21 21" fill="none" xmlns="http://www.w3.org/2000/svg">
<path fill-rule="evenodd" clip-rule="evenodd" d="M0.617544 10.0029C0.891969 9.45401 1.55937 9.23155 2.10822 9.50597L10.5 13.7019L18.8918 9.50597C19.4406 9.23155 20.108 9.45401 20.3825 10.0029C20.6569 10.5517 20.4344 11.2191 19.8856 11.4935L10.9969 15.9379C10.6841 16.0943 10.3159 16.0943 10.0031 15.9379L1.11444 11.4935C0.565584 11.2191 0.343118 10.5517 0.617544 10.0029Z" stroke="#ABABAB" stroke-linecap="round" stroke-linejoin="round"/>
<path fill-rule="evenodd" clip-rule="evenodd" d="M0.617544 14.4472C0.891969 13.8983 1.55937 13.6759 2.10822 13.9503L10.5 18.1462L18.8918 13.9503C19.4406 13.6759 20.108 13.8983 20.3825 14.4472C20.6569 14.9961 20.4344 15.6635 19.8856 15.9379L10.9969 20.3822C10.6841 20.5386 10.3159 20.5386 10.0031 20.3822L1.11444 15.9379C0.565584 15.6635 0.343118 14.9961 0.617544 14.4472Z" stroke="#ABABAB" stroke-linecap="round" stroke-linejoin="round"/>
<path fill-rule="evenodd" clip-rule="evenodd" d="M10.0031 0.6173C10.3159 0.4609 10.6841 0.4609 10.9969 0.6173L19.8856 5.06164C20.262 5.24985 20.4998 5.63457 20.4998 6.05542C20.4998 6.47627 20.262 6.861 19.8856 7.0492L10.9969 11.4935C10.6841 11.6499 10.3159 11.6499 10.0031 11.4935L1.11444 7.0492C0.738018 6.861 0.500243 6.47627 0.500243 6.05542C0.500243 5.63457 0.738018 5.24985 1.11444 5.06164L10.0031 0.6173Z" stroke="#ABABAB" stroke-linecap="round" stroke-linejoin="round"/>
</svg>
