<svg width="20" height="13" viewBox="0 0 20 13" fill="none" xmlns="http://www.w3.org/2000/svg">
<path fill-rule="evenodd" clip-rule="evenodd" d="M18.5714 1.42857V2.85714H1.42857V1.42857H18.5714ZM1.42857 4.28571H18.5714V11.4286H1.42857V4.28571ZM18.5714 0H1.42857C1.04969 0 0.686328 0.15051 0.418419 0.418419C0.15051 0.686328 0 1.04969 0 1.42857V11.4286C0 11.8075 0.15051 12.1708 0.418419 12.4387C0.686328 12.7066 1.04969 12.8571 1.42857 12.8571H18.5714C18.9503 12.8571 19.3137 12.7066 19.5816 12.4387C19.8495 12.1708 20 11.8075 20 11.4286V1.42857C20 1.04969 19.8495 0.686328 19.5816 0.418419C19.3137 0.15051 18.9503 0 18.5714 0ZM14.2857 8.57143H17.1429V10H14.2857V8.57143Z" fill="#ABABAB"/>
</svg>
