<svg width="19" height="24" viewBox="0 0 19 24" fill="none" xmlns="http://www.w3.org/2000/svg">
<path fill-rule="evenodd" clip-rule="evenodd" d="M11.9498 0.870487C10.2826 0.376504 8.50794 0.376504 6.84075 0.870487C3.57635 1.83771 1.33696 4.83687 1.33696 8.24154V11.4759C1.33696 12.0382 1.2256 12.595 1.0093 13.1141L0.798917 13.6191C0.520337 14.2877 0.407381 15.0622 0.58649 15.8018C0.77357 16.5744 1.27503 17.2652 2.10564 17.6455C2.75462 17.9426 3.60811 18.2278 4.72804 18.4441V18.8327C4.72804 21.4104 6.81764 23.5 9.3953 23.5C11.973 23.5 14.0626 21.4104 14.0626 18.8327V18.4441C15.5613 18.1546 16.5837 17.7417 17.2769 17.3413C18.5937 16.5807 18.6045 15.09 18.2054 14.1322L18.1105 13.9043C17.6768 12.8636 17.4536 11.7473 17.4536 10.6199V8.24154C17.4536 4.83687 15.2142 1.83771 11.9498 0.870487ZM9.35947 18.8327C9.37139 18.8328 9.38332 18.8328 9.39527 18.8328C9.40721 18.8328 9.41915 18.8328 9.43106 18.8327H11.7289C11.7289 20.1216 10.6841 21.1664 9.3953 21.1664C8.10647 21.1664 7.06167 20.1216 7.06167 18.8327H9.35947Z" stroke="#060606" stroke-linejoin="round"/>
</svg>
