<svg width="23" height="23" viewBox="0 0 23 23" fill="none" xmlns="http://www.w3.org/2000/svg">
<path fill-rule="evenodd" clip-rule="evenodd" d="M6 0.5C2.96243 0.5 0.5 2.96243 0.5 6V17C0.5 20.0376 2.96243 22.5 6 22.5H17C20.0376 22.5 22.5 20.0376 22.5 17V6C22.5 2.96243 20.0376 0.5 17 0.5H6ZM12.6 7.1C12.6 6.49249 12.1075 6 11.5 6C10.8925 6 10.4 6.49249 10.4 7.1V10.4H7.1C6.49249 10.4 6 10.8925 6 11.5C6 12.1075 6.49249 12.6 7.1 12.6H10.4V15.9C10.4 16.5075 10.8925 17 11.5 17C12.1075 17 12.6 16.5075 12.6 15.9V12.6H15.9C16.5075 12.6 17 12.1075 17 11.5C17 10.8925 16.5075 10.4 15.9 10.4H12.6V7.1Z" stroke="#060606" stroke-linecap="round" stroke-linejoin="round"/>
</svg>
