<svg width="20" height="20" viewBox="0 0 20 20" fill="none" xmlns="http://www.w3.org/2000/svg">
<path fill-rule="evenodd" clip-rule="evenodd" d="M0.117544 9.50286C0.391969 8.95401 1.05937 8.73155 1.60822 9.00597L10 13.2019L18.3918 9.00597C18.9406 8.73155 19.608 8.95401 19.8825 9.50286C20.1569 10.0517 19.9344 10.7191 19.3856 10.9935L10.4969 15.4379C10.1841 15.5943 9.81591 15.5943 9.50311 15.4379L0.614436 10.9935C0.0655839 10.7191 -0.156882 10.0517 0.117544 9.50286Z" fill="#00ACB1"/>
<path fill-rule="evenodd" clip-rule="evenodd" d="M0.117544 13.9472C0.391969 13.3983 1.05937 13.1759 1.60822 13.4503L10 17.6462L18.3918 13.4503C18.9406 13.1759 19.608 13.3983 19.8825 13.9472C20.1569 14.4961 19.9344 15.1635 19.3856 15.4379L10.4969 19.8822C10.1841 20.0386 9.81591 20.0386 9.50311 19.8822L0.614436 15.4379C0.0655839 15.1635 -0.156882 14.4961 0.117544 13.9472Z" fill="#00ACB1"/>
<path fill-rule="evenodd" clip-rule="evenodd" d="M9.50311 0.1173C9.81591 -0.0391001 10.1841 -0.0391001 10.4969 0.1173L19.3856 4.56164C19.762 4.74985 19.9998 5.13457 19.9998 5.55542C19.9998 5.97627 19.762 6.361 19.3856 6.5492L10.4969 10.9935C10.1841 11.1499 9.81591 11.1499 9.50311 10.9935L0.614436 6.5492C0.238018 6.361 0.000243447 5.97627 0.000243447 5.55542C0.000243447 5.13457 0.238018 4.74985 0.614436 4.56164L9.50311 0.1173Z" fill="#00ACB1"/>
</svg>
