<svg width="23" height="15" viewBox="0 0 23 15" fill="none" xmlns="http://www.w3.org/2000/svg">
<path d="M8.39062 1.52026H14.6095V12.6945H8.39062V1.52026Z" fill="#FF5F00"/>
<path d="M8.78543 7.10729C8.78543 4.83694 9.85149 2.82317 11.4901 1.52013C10.2859 0.572511 8.76574 0 7.10738 0C3.17849 0 0 3.17849 0 7.10729C0 11.036 3.17849 14.2146 7.10729 14.2146C8.76565 14.2146 10.2858 13.6421 11.4901 12.6944C9.85149 11.4111 8.78543 9.37764 8.78543 7.10729V7.10729Z" fill="#EB001B"/>
<path d="M22.9998 7.10729C22.9998 11.036 19.8213 14.2146 15.8925 14.2146C14.2342 14.2146 12.7141 13.6421 11.5098 12.6944C13.1681 11.3914 14.2145 9.37764 14.2145 7.10729C14.2145 4.83694 13.1483 2.82317 11.5098 1.52013C12.714 0.572511 14.2342 0 15.8925 0C19.8213 0 22.9999 3.19828 22.9999 7.10729H22.9998Z" fill="#F79E1B"/>
</svg>
