<svg width="22" height="20" viewBox="0 0 22 20" fill="none" xmlns="http://www.w3.org/2000/svg">
<path fill-rule="evenodd" clip-rule="evenodd" d="M12.5297 0.896398C11.5784 0.367868 10.4216 0.367867 9.47025 0.896397L1.04026 5.57973C0.533343 5.86135 0.350705 6.50058 0.632324 7.00749C0.913942 7.51441 1.55317 7.69704 2.06009 7.41543L2.59996 7.1155V13.8476C2.59996 16.747 4.95043 19.0975 7.84987 19.0975H14.1498C17.0492 19.0975 19.3997 16.747 19.3997 13.8476V7.11528L19.9399 7.41543C20.4468 7.69704 21.0861 7.51441 21.3677 7.00749C21.6493 6.50058 21.4667 5.86135 20.9597 5.57973L12.5297 0.896398ZM7.84987 15.9475V14.8975C7.84987 13.1578 9.26014 11.7476 10.9998 11.7476C12.7395 11.7476 14.1498 13.1578 14.1498 14.8975V15.9475C14.1498 16.5274 13.6797 16.9975 13.0998 16.9975H8.89985C8.31996 16.9975 7.84987 16.5274 7.84987 15.9475Z" fill="white" stroke="#ABABAB" stroke-linecap="square" stroke-linejoin="round"/>
</svg>
