<svg width="20" height="18" viewBox="0 0 20 18" fill="none" xmlns="http://www.w3.org/2000/svg">
<path d="M20 2.5C20 3.88071 18.8807 5 17.5 5C16.1193 5 15 3.88071 15 2.5C15 1.11929 16.1193 0 17.5 0C18.8807 0 20 1.11929 20 2.5Z" fill="#00ACB1"/>
<path fill-rule="evenodd" clip-rule="evenodd" d="M5 2H13.0275C13.0093 2.16417 13 2.331 13 2.5C13 4.98528 15.0147 7 17.5 7C18.4028 7 19.2435 6.73416 19.948 6.27649C19.9823 6.51272 20 6.75429 20 7V13C20 15.7614 17.7614 18 15 18H5C2.23858 18 0 15.7614 0 13V7C0 4.23858 2.23858 2 5 2ZM5.62473 6.21917C5.19347 5.87416 4.56418 5.94408 4.21917 6.37534C3.87416 6.8066 3.94408 7.4359 4.37534 7.78091L7.01318 9.89118C8.76001 11.2886 11.2225 11.3557 13.0429 10.0555L14.0813 9.31377C14.5307 8.99276 14.6348 8.36821 14.3138 7.9188C13.9928 7.46939 13.3682 7.36529 12.9188 7.6863L11.8804 8.42804C10.7882 9.20818 9.31067 9.16792 8.26257 8.32944L5.62473 6.21917Z" fill="#00ACB1"/>
</svg>
