<svg width="21" height="19" viewBox="0 0 21 19" fill="none" xmlns="http://www.w3.org/2000/svg">
<path fill-rule="evenodd" clip-rule="evenodd" d="M12.0297 0.396398C11.0784 -0.132132 9.92161 -0.132133 8.97025 0.396397L0.540256 5.07973C0.0333427 5.36135 -0.149295 6.00058 0.132324 6.50749C0.413942 7.01441 1.05317 7.19704 1.56009 6.91543L2.09996 6.6155V13.3476C2.09996 16.247 4.45043 18.5975 7.34987 18.5975H13.6498C16.5492 18.5975 18.8997 16.247 18.8997 13.3476V6.61528L19.4399 6.91543C19.9468 7.19704 20.5861 7.01441 20.8677 6.50749C21.1493 6.00058 20.9667 5.36135 20.4597 5.07973L12.0297 0.396398ZM7.34987 15.4475V14.3975C7.34987 12.6578 8.76014 11.2476 10.4998 11.2476C12.2395 11.2476 13.6498 12.6578 13.6498 14.3975V15.4475C13.6498 16.0274 13.1797 16.4975 12.5998 16.4975H8.39985C7.81996 16.4975 7.34987 16.0274 7.34987 15.4475Z" fill="#00ACB1"/>
</svg>
