<svg width="21" height="17" viewBox="0 0 21 17" fill="none" xmlns="http://www.w3.org/2000/svg">
<path fill-rule="evenodd" clip-rule="evenodd" d="M5.25 0C2.35051 0 0 2.3505 0 5.25V11.55C0 14.4495 2.3505 16.8 5.25 16.8H15.75C18.6495 16.8 21 14.4495 21 11.55V5.25C21 2.35051 18.6495 0 15.75 0H5.25ZM5.90597 4.43009C5.45314 4.06783 4.79239 4.14124 4.43013 4.59407C4.06787 5.04689 4.14128 5.70765 4.59411 6.06991L7.22039 8.17093C9.13779 9.70485 11.8623 9.70485 13.7797 8.17093L16.406 6.06991C16.8588 5.70765 16.9322 5.04689 16.57 4.59407C16.2077 4.14124 15.5469 4.06783 15.0941 4.43009L12.4678 6.53111C11.3174 7.45146 9.68269 7.45146 8.53225 6.53111L5.90597 4.43009Z" fill="#00ACB1"/>
</svg>
