<svg width="20" height="18" viewBox="0 0 20 18" fill="none" xmlns="http://www.w3.org/2000/svg">
<path d="M7.13393 2.13388C7.62208 1.64573 7.62208 0.854272 7.13393 0.366117C6.64577 -0.122039 5.85432 -0.122039 5.36616 0.366117L0.372544 5.35974C0.142564 5.58643 0 5.90156 0 6.25C0 6.94036 0.559644 7.5 1.25 7.5H18.75C19.4404 7.5 20 6.94036 20 6.25C20 5.55964 19.4404 5 18.75 5H4.26781L7.13393 2.13388Z" fill="#555454"/>
<path d="M0 11.25C0 10.5596 0.559644 10 1.25 10H18.75C19.4404 10 20 10.5596 20 11.25C20 11.5883 19.8656 11.8951 19.6474 12.1202C19.643 12.1247 19.6385 12.1292 19.6339 12.1339L14.6339 17.1339C14.1457 17.622 13.3543 17.622 12.8661 17.1339C12.378 16.6457 12.378 15.8543 12.8661 15.3661L15.7322 12.5H1.25C0.559644 12.5 0 11.9404 0 11.25Z" fill="#555454"/>
</svg>
