<svg width="16" height="16" viewBox="0 0 16 16" fill="none" xmlns="http://www.w3.org/2000/svg">
<path d="M2.4 4C2.4 1.79086 4.19086 0 6.4 0C8.60914 0 10.4 1.79086 10.4 4C10.4 6.20914 8.60914 8 6.4 8C4.19086 8 2.4 6.20914 2.4 4Z" fill="#060606"/>
<path d="M6.03636 9.6C6.33238 9.6 6.62259 9.62491 6.90499 9.67275C6.58073 10.3815 6.4 11.1696 6.4 12C6.4 13.567 7.04357 14.9836 8.08081 16H1.23636C0.553539 16 0 15.4465 0 14.7636C0 14.7093 0.000838807 14.6552 0.00250418 14.6013C0.000842384 14.5725 0 14.5435 0 14.5143C0 11.8002 2.2002 9.6 4.91429 9.6H6.03636Z" fill="#060606"/>
<path fill-rule="evenodd" clip-rule="evenodd" d="M16 12C16 14.2091 14.2091 16 12 16C9.79086 16 8 14.2091 8 12C8 9.79086 9.79086 8 12 8C14.2091 8 16 9.79086 16 12ZM14.0243 11.6243L12.0243 13.6243C11.7899 13.8586 11.4096 13.8582 11.1753 13.6239L10.3757 12.8243C10.1414 12.5899 10.1414 12.2101 10.3757 11.9757C10.6101 11.7414 10.9899 11.7414 11.2243 11.9757L11.6 12.3515L13.1757 10.7757C13.4101 10.5414 13.7899 10.5414 14.0243 10.7757C14.2586 11.0101 14.2586 11.3899 14.0243 11.6243Z" fill="#060606"/>
</svg>
