<svg width="373" height="171" viewBox="0 0 373 171" fill="none" xmlns="http://www.w3.org/2000/svg">
<g filter="url(#filter0_d_204_645)">
<path fill-rule="evenodd" clip-rule="evenodd" d="M354 15H19V138C19 143.523 23.4771 148 29 148H29.0136C29.0136 145.239 31.0514 143 33.5652 143C36.079 143 38.1168 145.239 38.1168 148H41.7582C41.7582 145.239 43.796 143 46.3098 143C48.8236 143 50.8614 145.239 50.8614 148H54.5027C54.5027 145.239 56.5406 143 59.0543 143C61.5681 143 63.606 145.239 63.606 148H67.2473C67.2473 145.239 69.2851 143 71.7989 143C74.3127 143 76.3505 145.239 76.3505 148H79.9918C79.9918 145.239 82.0297 143 84.5435 143C87.0573 143 89.0951 145.239 89.0951 148H92.7364C92.7364 145.239 94.7742 143 97.288 143C99.8018 143 101.84 145.239 101.84 148H105.481C105.481 145.239 107.519 143 110.033 143C112.546 143 114.584 145.239 114.584 148H118.226C118.226 145.239 120.263 143 122.777 143C125.291 143 127.329 145.239 127.329 148H130.97C130.97 145.239 133.008 143 135.522 143C138.036 143 140.073 145.239 140.073 148H143.715C143.715 145.239 145.753 143 148.266 143C150.78 143 152.818 145.239 152.818 148H156.459C156.459 145.239 158.497 143 161.011 143C163.525 143 165.562 145.239 165.562 148H169.204C169.204 145.239 171.242 143 173.755 143C176.269 143 178.307 145.239 178.307 148H181.948C181.948 145.239 183.986 143 186.5 143C189.014 143 191.052 145.239 191.052 148H194.693C194.693 145.239 196.731 143 199.245 143C201.758 143 203.796 145.239 203.796 148H207.438C207.438 145.239 209.475 143 211.989 143C214.503 143 216.541 145.239 216.541 148H220.182C220.182 145.239 222.22 143 224.734 143C227.247 143 229.285 145.239 229.285 148H232.927C232.927 145.239 234.964 143 237.478 143C239.992 143 242.03 145.239 242.03 148H245.671C245.671 145.239 247.709 143 250.223 143C252.737 143 254.774 145.239 254.774 148H258.416C258.416 145.239 260.454 143 262.967 143C265.481 143 267.519 145.239 267.519 148H271.16C271.16 145.239 273.198 143 275.712 143C278.226 143 280.264 145.239 280.264 148H283.905C283.905 145.239 285.943 143 288.457 143C290.97 143 293.008 145.239 293.008 148H296.649C296.649 145.239 298.687 143 301.201 143C303.715 143 305.753 145.239 305.753 148H309.394C309.394 145.239 311.432 143 313.946 143C316.459 143 318.497 145.239 318.497 148H322.139C322.139 145.239 324.176 143 326.69 143C329.204 143 331.242 145.239 331.242 148H334.883C334.883 145.239 336.921 143 339.435 143C341.949 143 343.986 145.239 343.986 148H344C349.523 148 354 143.523 354 138V15Z" fill="white"/>
</g>
<defs>
<filter id="filter0_d_204_645" x="0" y="0" width="373" height="171" filterUnits="userSpaceOnUse" color-interpolation-filters="sRGB">
<feFlood flood-opacity="0" result="BackgroundImageFix"/>
<feColorMatrix in="SourceAlpha" type="matrix" values="0 0 0 0 0 0 0 0 0 0 0 0 0 0 0 0 0 0 127 0" result="hardAlpha"/>
<feOffset dy="4"/>
<feGaussianBlur stdDeviation="9.5"/>
<feComposite in2="hardAlpha" operator="out"/>
<feColorMatrix type="matrix" values="0 0 0 0 0 0 0 0 0 0 0 0 0 0 0 0 0 0 0.02 0"/>
<feBlend mode="normal" in2="BackgroundImageFix" result="effect1_dropShadow_204_645"/>
<feBlend mode="normal" in="SourceGraphic" in2="effect1_dropShadow_204_645" result="shape"/>
</filter>
</defs>
</svg>
