<svg width="22" height="20" viewBox="0 0 22 20" fill="none" xmlns="http://www.w3.org/2000/svg">
<path fill-rule="evenodd" clip-rule="evenodd" d="M12.5297 0.89639C11.5784 0.367865 10.4216 0.367864 9.47027 0.89639L1.04034 5.57968C0.53343 5.8613 0.350794 6.50053 0.63241 7.00744C0.914026 7.51434 1.55325 7.69698 2.06016 7.41536L2.60003 7.11544V13.8475C2.60003 16.7469 4.95048 19.0973 7.84989 19.0973H14.1497C17.0491 19.0973 19.3996 16.7469 19.3996 13.8475V7.11522L19.9398 7.41536C20.4467 7.69698 21.086 7.51434 21.3676 7.00744C21.6492 6.50053 21.4666 5.8613 20.9597 5.57968L12.5297 0.89639ZM7.84989 15.9474V14.8974C7.84989 13.1577 9.26016 11.7475 10.9998 11.7475C12.7395 11.7475 14.1497 13.1577 14.1497 14.8974V15.9474C14.1497 16.5272 13.6796 16.9973 13.0998 16.9973H8.89986C8.31998 16.9973 7.84989 16.5272 7.84989 15.9474Z" fill="white" stroke="#ABABAB" stroke-linecap="square" stroke-linejoin="round"/>
</svg>
