<svg width="20" height="20" viewBox="0 0 20 20" fill="none" xmlns="http://www.w3.org/2000/svg">
<path fill-rule="evenodd" clip-rule="evenodd" d="M0 10C0 4.47715 4.47715 0 10 0C15.5228 0 20 4.47715 20 10C20 15.5228 15.5228 20 10 20C4.47715 20 0 15.5228 0 10ZM10 4C8.34315 4 7 5.34315 7 7C7 8.65685 8.34315 10 10 10C11.6569 10 13 8.65685 13 7C13 5.34315 11.6569 4 10 4ZM15.8946 15.4473L15.0002 15C15.8946 15.4473 15.8939 15.4487 15.8939 15.4487L15.8932 15.4502L15.8916 15.4532L15.8882 15.46L15.88 15.4756C15.8739 15.4871 15.8666 15.5004 15.858 15.5155C15.8409 15.5458 15.8186 15.5832 15.7906 15.6267C15.7346 15.7138 15.6558 15.8254 15.5497 15.9527C15.3369 16.208 15.0163 16.5245 14.5549 16.8321C13.6228 17.4534 12.1751 18 10.0001 18C6.31494 18 4.76549 16.4304 4.26653 15.7115C3.96463 15.2765 3.99806 14.7683 4.18066 14.4031C4.91705 12.9303 6.42234 12 8.06896 12H11.7642C13.5134 12 15.1124 12.9883 15.8947 14.5528C16.0354 14.8343 16.0354 15.1657 15.8946 15.4473Z" fill="#00ACB1"/>
</svg>
