<svg width="21" height="20" viewBox="0 0 21 20" fill="none" xmlns="http://www.w3.org/2000/svg">
<path fill-rule="evenodd" clip-rule="evenodd" d="M2.67101 4.62728C2.67101 2.0717 4.74272 0 7.2983 0C9.85387 0 11.9256 2.0717 11.9256 4.62728C11.9256 7.18286 9.85387 9.25457 7.2983 9.25457C4.74272 9.25457 2.67101 7.18286 2.67101 4.62728Z" fill="#00ACB1"/>
<path d="M15.294 8.49946C14.5293 8.49946 13.8185 8.26852 13.2275 7.87258C13.7559 6.90936 14.0563 5.80341 14.0563 4.62728C14.0563 3.54459 13.8017 2.52135 13.3491 1.6142C13.9149 1.26614 14.581 1.06539 15.294 1.06539C17.3469 1.06539 19.011 2.72956 19.011 4.78243C19.011 6.83529 17.3469 8.49946 15.294 8.49946Z" fill="#00ACB1"/>
<path d="M12.916 10.7786C14.967 12.0517 16.4038 14.2205 16.6798 16.7385H19.3664C20.2686 16.7385 21 16.0071 21 15.1049C21 12.6336 18.9966 10.6302 16.5253 10.6302H14.0631C13.6666 10.6302 13.2821 10.6818 12.916 10.7786Z" fill="#00ACB1"/>
<path fill-rule="evenodd" clip-rule="evenodd" d="M6.54453 10.6539C2.93009 10.6539 0 13.584 0 17.1984C0 18.2912 0.885839 19.177 1.97858 19.177H12.9369C14.0296 19.177 14.9154 18.2912 14.9154 17.1984C14.9154 13.584 11.9854 10.6539 8.37091 10.6539H6.54453Z" fill="#00ACB1"/>
</svg>
