<svg width="193" height="225" viewBox="0 0 193 225" fill="none" xmlns="http://www.w3.org/2000/svg">
<circle cx="103.417" cy="149.588" r="75.2786" fill="#00ACB1" fill-opacity="0.05"/>
<rect x="-3.28222" y="73.9419" width="131.49" height="158.591" rx="9.5" transform="rotate(-35.9656 -3.28222 73.9419)" stroke="black"/>
<rect x="15.8683" y="75.5497" width="101.375" height="19.0706" rx="3" transform="rotate(-35.9656 15.8683 75.5497)" fill="#00ACB1" fill-opacity="0.1"/>
<rect x="40.5769" y="87.3832" width="76.2823" height="11.0409" rx="3" transform="rotate(-35.9656 40.5769 87.3832)" fill="#00ACB1" fill-opacity="0.1"/>
<rect x="54.0702" y="97.4339" width="65.2415" height="11.0409" rx="3" transform="rotate(-35.9656 54.0702 97.4339)" fill="#00ACB1" fill-opacity="0.1"/>
<rect x="59.4402" y="113.379" width="76.2823" height="11.0409" rx="3" transform="rotate(-35.9656 59.4402 113.379)" fill="#00ACB1" fill-opacity="0.1"/>
<rect x="68.8721" y="126.377" width="76.2823" height="11.0409" rx="3" transform="rotate(-35.9656 68.8721 126.377)" fill="#00ACB1" fill-opacity="0.1"/>
<rect x="78.3035" y="139.375" width="76.2823" height="11.0409" rx="3" transform="rotate(-35.9656 78.3035 139.375)" fill="#00ACB1" fill-opacity="0.1"/>
<rect x="87.7354" y="152.374" width="76.2823" height="11.0409" rx="3" transform="rotate(-35.9656 87.7354 152.374)" fill="#00ACB1" fill-opacity="0.1"/>
<rect x="97.1668" y="165.371" width="76.2823" height="16.0594" rx="3" transform="rotate(-35.9656 97.1668 165.371)" fill="#00ACB1" fill-opacity="0.1"/>
</svg>
