<svg width="22" height="20" viewBox="0 0 22 20" fill="none" xmlns="http://www.w3.org/2000/svg">
<path fill-rule="evenodd" clip-rule="evenodd" d="M12.5297 0.89639C11.5784 0.367865 10.4216 0.367864 9.47024 0.89639L1.04031 5.57968C0.533399 5.8613 0.350763 6.50053 0.63238 7.00744C0.913996 7.51434 1.55322 7.69698 2.06013 7.41536L2.6 7.11544V13.8475C2.6 16.7469 4.95045 19.0973 7.84986 19.0973H14.1497C17.0491 19.0973 19.3996 16.7469 19.3996 13.8475V7.11522L19.9398 7.41536C20.4467 7.69698 21.0859 7.51434 21.3676 7.00744C21.6492 6.50053 21.4665 5.8613 20.9596 5.57968L12.5297 0.89639ZM7.84986 15.9474V14.8974C7.84986 13.1577 9.26013 11.7475 10.9998 11.7475C12.7394 11.7475 14.1497 13.1577 14.1497 14.8974V15.9474C14.1497 16.5272 13.6796 16.9973 13.0997 16.9973H8.89983C8.31995 16.9973 7.84986 16.5272 7.84986 15.9474Z" fill="white" stroke="#ABABAB" stroke-linecap="square" stroke-linejoin="round"/>
</svg>
