<svg width="21" height="21" viewBox="0 0 21 21" fill="none" xmlns="http://www.w3.org/2000/svg">
<path fill-rule="evenodd" clip-rule="evenodd" d="M0.617659 10.0027C0.892081 9.4539 1.55947 9.23144 2.10832 9.50586L10.5 13.7017L18.8917 9.50586C19.4405 9.23144 20.1079 9.4539 20.3823 10.0027C20.6568 10.5516 20.4343 11.219 19.8855 11.4934L10.9969 15.9377C10.6841 16.0941 10.3159 16.0941 10.0031 15.9377L1.11454 11.4934C0.565699 11.219 0.343236 10.5516 0.617659 10.0027Z" fill="white"/>
<path fill-rule="evenodd" clip-rule="evenodd" d="M0.617659 14.447C0.892081 13.8982 1.55947 13.6757 2.10832 13.9501L10.5 18.146L18.8917 13.9501C19.4405 13.6757 20.1079 13.8982 20.3823 14.447C20.6568 14.9959 20.4343 15.6633 19.8855 15.9377L10.9969 20.382C10.6841 20.5384 10.3159 20.5384 10.0031 20.382L1.11454 15.9377C0.565699 15.6633 0.343236 14.9959 0.617659 14.447Z" fill="white"/>
<path fill-rule="evenodd" clip-rule="evenodd" d="M10.0031 0.617293C10.3159 0.460895 10.6841 0.460895 10.9969 0.617293L19.8855 5.06158C20.2619 5.24978 20.4996 5.63451 20.4996 6.05535C20.4996 6.47619 20.2619 6.86092 19.8855 7.04912L10.9969 11.4934C10.6841 11.6498 10.3159 11.6498 10.0031 11.4934L1.11454 7.04912C0.738132 6.86092 0.50036 6.47619 0.50036 6.05535C0.50036 5.63451 0.738132 5.24978 1.11454 5.06158L10.0031 0.617293Z" fill="white"/>
<path fill-rule="evenodd" clip-rule="evenodd" d="M0.617659 10.0027C0.892081 9.4539 1.55947 9.23144 2.10832 9.50586L10.5 13.7017L18.8917 9.50586C19.4405 9.23144 20.1079 9.4539 20.3823 10.0027C20.6568 10.5516 20.4343 11.219 19.8855 11.4934L10.9969 15.9377C10.6841 16.0941 10.3159 16.0941 10.0031 15.9377L1.11454 11.4934C0.565699 11.219 0.343236 10.5516 0.617659 10.0027Z" stroke="#ABABAB" stroke-linecap="round" stroke-linejoin="round"/>
<path fill-rule="evenodd" clip-rule="evenodd" d="M0.617659 14.447C0.892081 13.8982 1.55947 13.6757 2.10832 13.9501L10.5 18.146L18.8917 13.9501C19.4405 13.6757 20.1079 13.8982 20.3823 14.447C20.6568 14.9959 20.4343 15.6633 19.8855 15.9377L10.9969 20.382C10.6841 20.5384 10.3159 20.5384 10.0031 20.382L1.11454 15.9377C0.565699 15.6633 0.343236 14.9959 0.617659 14.447Z" stroke="#ABABAB" stroke-linecap="round" stroke-linejoin="round"/>
<path fill-rule="evenodd" clip-rule="evenodd" d="M10.0031 0.617293C10.3159 0.460895 10.6841 0.460895 10.9969 0.617293L19.8855 5.06158C20.2619 5.24978 20.4996 5.63451 20.4996 6.05535C20.4996 6.47619 20.2619 6.86092 19.8855 7.04912L10.9969 11.4934C10.6841 11.6498 10.3159 11.6498 10.0031 11.4934L1.11454 7.04912C0.738132 6.86092 0.50036 6.47619 0.50036 6.05535C0.50036 5.63451 0.738132 5.24978 1.11454 5.06158L10.0031 0.617293Z" stroke="#ABABAB" stroke-linecap="round" stroke-linejoin="round"/>
</svg>
