<svg width="20" height="20" viewBox="0 0 20 20" fill="none" xmlns="http://www.w3.org/2000/svg">
<path fill-rule="evenodd" clip-rule="evenodd" d="M8.88889 0C3.97969 0 0 3.97969 0 8.88889C0 13.7981 3.97969 17.7778 8.88889 17.7778C10.943 17.7778 12.8344 17.081 14.3396 15.911L18.1032 19.6746C18.5371 20.1085 19.2406 20.1085 19.6746 19.6746C20.1085 19.2406 20.1085 18.5371 19.6746 18.1032L15.911 14.3396C17.081 12.8344 17.7778 10.943 17.7778 8.88889C17.7778 3.97969 13.7981 0 8.88889 0ZM2.22222 8.88889C2.22222 5.20699 5.20699 2.22222 8.88889 2.22222C12.5708 2.22222 15.5556 5.20699 15.5556 8.88889C15.5556 12.5708 12.5708 15.5556 8.88889 15.5556C5.20699 15.5556 2.22222 12.5708 2.22222 8.88889Z" fill="#060606"/>
</svg>
