<svg width="23" height="23" viewBox="0 0 23 23" fill="none" xmlns="http://www.w3.org/2000/svg">
<path fill-rule="evenodd" clip-rule="evenodd" d="M10.2222 0C4.57665 0 0 4.57665 0 10.2222C0 15.8678 4.57665 20.4444 10.2222 20.4444C12.5845 20.4444 14.7596 19.6432 16.4905 18.2976L20.8187 22.6257C21.3177 23.1248 22.1267 23.1248 22.6257 22.6257C23.1248 22.1267 23.1248 21.3177 22.6257 20.8187L18.2976 16.4905C19.6432 14.7596 20.4444 12.5845 20.4444 10.2222C20.4444 4.57665 15.8678 0 10.2222 0ZM2.55556 10.2222C2.55556 5.98804 5.98804 2.55556 10.2222 2.55556C14.4564 2.55556 17.8889 5.98804 17.8889 10.2222C17.8889 14.4564 14.4564 17.8889 10.2222 17.8889C5.98804 17.8889 2.55556 14.4564 2.55556 10.2222Z" fill="#060606"/>
</svg>
