<svg width="21" height="21" viewBox="0 0 21 21" fill="none" xmlns="http://www.w3.org/2000/svg">
<path fill-rule="evenodd" clip-rule="evenodd" d="M0.5 10.5C0.5 4.97715 4.97715 0.5 10.5 0.5C16.0228 0.5 20.5 4.97715 20.5 10.5C20.5 16.0228 16.0228 20.5 10.5 20.5C4.97715 20.5 0.5 16.0228 0.5 10.5ZM10.5 4.5C8.84315 4.5 7.5 5.84315 7.5 7.5C7.5 9.15685 8.84315 10.5 10.5 10.5C12.1569 10.5 13.5 9.15685 13.5 7.5C13.5 5.84315 12.1569 4.5 10.5 4.5ZM16.3946 15.9473L15.5002 15.5C16.3946 15.9473 16.3939 15.9487 16.3939 15.9487L16.3932 15.9502L16.3916 15.9532L16.3882 15.96L16.38 15.9756C16.3739 15.9871 16.3666 16.0004 16.358 16.0155C16.3409 16.0458 16.3186 16.0832 16.2906 16.1267C16.2346 16.2138 16.1558 16.3254 16.0497 16.4527C15.8369 16.708 15.5163 17.0245 15.0549 17.3321C14.1228 17.9534 12.6751 18.5 10.5001 18.5C6.81494 18.5 5.26549 16.9304 4.76653 16.2115C4.46463 15.7765 4.49806 15.2683 4.68066 14.9031C5.41705 13.4303 6.92234 12.5 8.56896 12.5H12.2642C14.0134 12.5 15.6124 13.4883 16.3947 15.0528C16.5354 15.3343 16.5354 15.6657 16.3946 15.9473Z" stroke="#ABABAB"/>
</svg>
