<svg width="22" height="21" viewBox="0 0 22 21" fill="none" xmlns="http://www.w3.org/2000/svg">
<path fill-rule="evenodd" clip-rule="evenodd" d="M3.17101 5.12728C3.17101 2.5717 5.24272 0.5 7.7983 0.5C10.3539 0.5 12.4256 2.5717 12.4256 5.12728C12.4256 7.68286 10.3539 9.75457 7.7983 9.75457C5.24272 9.75457 3.17101 7.68286 3.17101 5.12728Z" fill="white"/>
<path d="M15.794 8.99946C15.0293 8.99946 14.3185 8.76852 13.7275 8.37258C14.2559 7.40936 14.5563 6.30341 14.5563 5.12728C14.5563 4.04459 14.3017 3.02135 13.8491 2.1142C14.4149 1.76614 15.081 1.56539 15.794 1.56539C17.8469 1.56539 19.511 3.22956 19.511 5.28243C19.511 7.33529 17.8469 8.99946 15.794 8.99946Z" fill="white"/>
<path d="M13.416 11.2786C15.467 12.5517 16.9038 14.7205 17.1798 17.2385H19.8664C20.7686 17.2385 21.5 16.5071 21.5 15.6049C21.5 13.1336 19.4966 11.1302 17.0253 11.1302H14.5631C14.1666 11.1302 13.7821 11.1818 13.416 11.2786Z" fill="white"/>
<path fill-rule="evenodd" clip-rule="evenodd" d="M7.04453 11.1539C3.43009 11.1539 0.5 14.084 0.5 17.6984C0.5 18.7912 1.38584 19.677 2.47858 19.677H13.4369C14.5296 19.677 15.4154 18.7912 15.4154 17.6984C15.4154 14.084 12.4854 11.1539 8.87091 11.1539H7.04453Z" fill="white"/>
<path fill-rule="evenodd" clip-rule="evenodd" d="M3.17101 5.12728C3.17101 2.5717 5.24272 0.5 7.7983 0.5C10.3539 0.5 12.4256 2.5717 12.4256 5.12728C12.4256 7.68286 10.3539 9.75457 7.7983 9.75457C5.24272 9.75457 3.17101 7.68286 3.17101 5.12728Z" stroke="#ABABAB"/>
<path d="M15.794 8.99946C15.0293 8.99946 14.3185 8.76852 13.7275 8.37258C14.2559 7.40936 14.5563 6.30341 14.5563 5.12728C14.5563 4.04459 14.3017 3.02135 13.8491 2.1142C14.4149 1.76614 15.081 1.56539 15.794 1.56539C17.8469 1.56539 19.511 3.22956 19.511 5.28243C19.511 7.33529 17.8469 8.99946 15.794 8.99946Z" stroke="#ABABAB"/>
<path d="M13.416 11.2786C15.467 12.5517 16.9038 14.7205 17.1798 17.2385H19.8664C20.7686 17.2385 21.5 16.5071 21.5 15.6049C21.5 13.1336 19.4966 11.1302 17.0253 11.1302H14.5631C14.1666 11.1302 13.7821 11.1818 13.416 11.2786Z" stroke="#ABABAB"/>
<path fill-rule="evenodd" clip-rule="evenodd" d="M7.04453 11.1539C3.43009 11.1539 0.5 14.084 0.5 17.6984C0.5 18.7912 1.38584 19.677 2.47858 19.677H13.4369C14.5296 19.677 15.4154 18.7912 15.4154 17.6984C15.4154 14.084 12.4854 11.1539 8.87091 11.1539H7.04453Z" stroke="#ABABAB"/>
</svg>
